# xmcd
#
# Track frame offsets: 
#        150
#        20958
#        38605
#        57245
#        77891
#        98688
#        122443
#        141374
#        166840
#        198357
#
# Disc length: 2841 seconds
#
# Revision: 0
# Processed by: cddbd v1.5.2PL0 Copyright (c) Steve Scherf et al.
# Submitted via: ExactAudioCopy v1.3
#
DISCID=7f0b170a
DTITLE=Giba Byblos - Tomorrow
DYEAR=2015
DGENRE=Blues
TTITLE0=Tomorrow
TTITLE1=Lord Have Mercy On Me
TTITLE2=Heap See
TTITLE3=Earn A Dime
TTITLE4=She Put The Whammy On Me
TTITLE5=Up For No Good
TTITLE6=Riverside
TTITLE7=17 Years
TTITLE8=Wrong Place, Wrong Time
TTITLE9=Catch You On The Flipside
EXTD=
EXTT0=
EXTT1=
EXTT2=
EXTT3=
EXTT4=
EXTT5=
EXTT6=
EXTT7=
EXTT8=
EXTT9=
PLAYORDER=
